<svg width="754" height="857" viewBox="0 0 754 857" fill="none" xmlns="http://www.w3.org/2000/svg">
<rect x="1" y="861.404" width="303" height="195" transform="rotate(-45.2271 1 861.404)" stroke="#4E4E4E" stroke-dasharray="20 20"/>
<rect x="427.805" y="431.202" width="303" height="195" transform="rotate(-45.2271 427.805 431.202)" stroke="#4E4E4E" stroke-dasharray="20 20"/>
<rect x="139.432" y="998.743" width="303" height="195" transform="rotate(-45.2271 139.432 998.743)" stroke="#4E4E4E" stroke-dasharray="20 20"/>
<rect x="566.236" y="568.541" width="303" height="195" transform="rotate(-45.2271 566.236 568.541)" stroke="#4E4E4E" stroke-dasharray="20 20"/>
<rect x="704.666" y="705.878" width="303" height="195" transform="rotate(-45.2271 704.666 705.878)" stroke="#4E4E4E" stroke-dasharray="20 20"/>
<rect x="214.402" y="646.303" width="303" height="195" transform="rotate(-45.2271 214.402 646.303)" stroke="#4E4E4E" stroke-dasharray="20 20"/>
<rect x="641.207" y="216.101" width="303" height="195" transform="rotate(-45.2271 641.207 216.101)" stroke="#4E4E4E" stroke-dasharray="20 20"/>
<rect x="352.834" y="783.642" width="303" height="195" transform="rotate(-45.2271 352.834 783.642)" stroke="#4E4E4E" stroke-dasharray="20 20"/>
<rect x="491.264" y="920.979" width="303" height="195" transform="rotate(-45.2271 491.264 920.979)" stroke="#4E4E4E" stroke-dasharray="20 20"/>
</svg>
