<svg width="258" height="221" viewBox="0 0 258 221" fill="none" xmlns="http://www.w3.org/2000/svg">
<path fill-rule="evenodd" clip-rule="evenodd" d="M126.176 41.0982C118.905 42.1546 111.057 44.4495 104.57 47.4154C96.1244 51.2776 85.2599 60.1669 79.4083 68.003C62.3994 90.7817 61.4856 122.443 77.1654 145.732C87.5213 161.115 102.493 171.075 121.325 175.111C126.796 176.284 141.052 176.299 146.859 175.138C160.875 172.338 171.97 166.382 182.323 156.101C192.37 146.124 198.124 135.606 201.104 121.768C202.299 116.223 202.299 100.787 201.104 95.2421C199.184 86.3258 195.523 77.7521 190.332 70.013C187.02 65.0755 177.453 55.7348 172.172 52.2829C160.216 44.4683 150.014 41.3319 135.646 41.0533C131.2 40.9674 126.938 40.9875 126.176 41.0982ZM152.723 71.5227C155.49 72.7131 156.369 73.5587 157.652 76.2625C160.45 82.1599 158.027 91.272 152.027 97.4145C149.596 99.9033 149.015 100.273 147.533 100.273C146.229 100.273 145.655 100.007 145.077 99.1327C143.994 97.4963 144.508 96.1536 147.483 92.8525C152.003 87.8378 153.727 82.9095 152.071 79.7383C150.174 76.1066 142.992 75.9712 135.374 79.4237C127.793 82.8597 117.227 92.1121 111.042 100.73C100.375 115.595 96.8631 133.13 103.334 139.224C107.744 143.378 115.924 142.38 124.604 136.629L128.255 134.21V136.621C128.255 137.947 128.378 139.645 128.53 140.393C128.801 141.735 128.728 141.792 123.563 144.343C117.391 147.389 114.112 148.293 109.233 148.293C88.218 148.293 87.9006 119.901 108.623 93.6414C111.787 89.6306 118.315 83.1062 122.159 80.1115C132.859 71.776 145.232 68.2993 152.723 71.5227ZM152.502 104.008C153.723 104.958 153.766 105.134 153.561 108.239C153.316 111.946 151.52 116.249 147.884 121.841C145.36 125.722 139.376 133.201 138.795 133.201C137.718 133.201 140.967 124.903 144.045 119.792C145.357 117.612 147.464 114.682 148.725 113.281C150.435 111.381 150.885 110.602 150.494 110.215C149.79 109.518 147.403 111.826 144.468 116.041C139.747 122.822 137.087 129.501 136.701 135.542C136.471 139.138 136.536 139.57 137.434 140.459C138.745 141.757 139.597 141.692 142.947 140.034C146.522 138.266 151.618 133.57 155.982 128.023L159.374 123.712L162.007 129.225L160.845 130.87C158.726 133.87 153.875 139.158 151.326 141.244C149.944 142.376 147.264 144.064 145.372 144.997C142.307 146.508 141.546 146.693 138.406 146.693C135.291 146.693 134.692 146.55 133.25 145.461C130.68 143.521 129.909 141.444 129.969 136.631C130.108 125.564 139.457 108.064 147.297 104.196C150.206 102.761 150.87 102.737 152.502 104.008ZM169.766 109.614C171.426 110.464 172.144 112.107 172.139 115.044C172.135 117.381 170.537 121.741 169.438 122.413C168.508 122.983 167.327 119.849 167.344 116.851C167.36 113.924 167.197 113.585 166.23 114.542C165.021 115.738 165.615 118.919 168.022 124.134C169.336 126.981 170.568 130.446 170.823 132.01C171.27 134.761 171.257 134.819 169.938 135.945C169.201 136.574 168.201 137.322 167.715 137.607C167.228 137.892 166.977 138.276 167.155 138.462C167.786 139.117 169.784 138.21 172.192 136.175C174.863 133.918 176.268 133.626 177.687 135.031C179.163 136.491 178.829 137.754 176.362 140.047C169.317 146.595 156.898 148.315 156.898 142.742C156.898 141.989 157.102 140.997 157.35 140.537C157.893 139.532 160.148 138.689 162.291 138.689C163.54 138.689 163.94 138.456 164.301 137.516C165.375 134.72 164.902 132.589 161.292 123.943C159.203 118.941 159.015 115.486 160.672 112.557C162.478 109.365 166.645 108.016 169.766 109.614Z" fill="#191A1E"/>
<rect x="27" width="50" height="50" rx="25" fill="white"/>
<path d="M61 34H43V16H61V34ZM49.1 30.232L47.732 31.076C47.9452 31.5439 48.2907 31.9392 48.726 32.213C49.1988 32.484 49.7361 32.6222 50.281 32.613C50.5668 32.611 50.8515 32.5775 51.13 32.513C51.7126 32.3697 52.2065 31.9849 52.488 31.455C52.7685 30.795 52.8719 30.0732 52.788 29.361C52.788 29.225 52.788 29.086 52.788 28.946C52.793 27.919 52.788 26.874 52.788 25.862C52.788 25.346 52.788 24.829 52.788 24.311V24.269H51.1C51.1 24.995 51.1 25.7193 51.1 26.442C51.1 27.169 51.1 27.895 51.1 28.623C51.1 28.809 51.1 28.991 51.1 29.166C51.1502 29.6651 51.114 30.1692 50.993 30.656C50.8477 30.9364 50.5488 31.1026 50.234 31.078C50.093 31.0776 49.9528 31.0564 49.818 31.015C49.5472 30.8734 49.3288 30.6488 49.195 30.374L49.162 30.318C49.131 30.265 49.11 30.228 49.1 30.228V30.232ZM55.049 30.032L53.676 30.819C53.7884 31.065 53.9435 31.2891 54.134 31.481C54.181 31.533 54.234 31.589 54.283 31.651C54.9544 32.2514 55.8318 32.5692 56.732 32.538C57.8969 32.6528 58.9975 31.9839 59.432 30.897V30.889C59.5458 30.4895 59.564 30.0688 59.485 29.661L59.519 29.71C59.371 28.781 58.698 28.136 57.267 27.555C57.156 27.503 57.041 27.455 56.929 27.405C56.484 27.213 56.064 27.033 55.918 26.705C55.8529 26.5363 55.8411 26.3517 55.884 26.176C55.9875 25.8241 56.3271 25.5959 56.692 25.633C56.8034 25.633 56.9142 25.6492 57.021 25.681C57.3501 25.7919 57.6163 26.0378 57.753 26.357C58.528 25.85 58.528 25.85 59.069 25.513C58.9452 25.3017 58.798 25.1052 58.63 24.927C58.1167 24.3767 57.3801 24.0909 56.63 24.151H56.51L55.982 24.218C55.4861 24.3293 55.0375 24.5929 54.699 24.972C54.3011 25.4696 54.1219 26.1073 54.2023 26.7394C54.2828 27.3715 54.6161 27.9439 55.126 28.326C55.564 28.6258 56.0364 28.8718 56.533 29.059C57.174 29.329 57.727 29.559 57.839 29.98C57.9068 30.2238 57.8568 30.4853 57.704 30.687C57.4325 30.9551 57.057 31.0903 56.677 31.057C56.5724 31.0567 56.4678 31.05 56.364 31.037C55.7985 30.9103 55.317 30.5418 55.047 30.029L55.049 30.032Z" fill="black"/>
<rect x="170" y="181" width="40" height="40" rx="20" fill="white"/>
<path d="M189.987 208.191L184.892 206.741L183.754 193.914H196.246L195.11 206.741L189.99 208.191H189.987ZM186.578 202.081L186.751 204.375L190.001 205.386L193.194 204.474L193.918 196.536H186.078L186.204 198.095H192.228L192.079 199.714H188.128L188.271 201.244H191.951L191.733 203.34L190.002 203.82L188.242 203.34L188.13 202.084H186.578V202.081Z" fill="black"/>
<rect y="128" width="60" height="60" rx="30" fill="white"/>
<path d="M26.9446 168C25.2796 168.013 23.7883 166.973 23.2256 165.406C22.6629 163.839 23.1517 162.087 24.4446 161.038C23.5276 160.296 22.9948 159.179 22.9948 157.999C22.9948 156.82 23.5276 155.703 24.4446 154.961C23.1513 153.912 22.6622 152.161 23.225 150.594C23.7878 149.027 25.2795 147.986 26.9446 148H33.0545C34.7195 147.986 36.2113 149.027 36.7741 150.594C37.3369 152.161 36.8478 153.912 35.5545 154.961C36.8474 156.01 37.3362 157.762 36.7735 159.329C36.2108 160.896 34.7195 161.936 33.0545 161.923C32.2855 161.924 31.533 161.7 30.8895 161.279V164.079C30.8802 166.25 29.1155 168.004 26.9446 168ZM26.9226 161.924C25.7381 161.943 24.7912 162.915 24.8037 164.099C24.8161 165.284 25.7831 166.236 26.9677 166.23C28.1523 166.224 29.1094 165.262 29.1095 164.077V161.924H26.9216H26.9226ZM33.0555 155.847C31.8679 155.853 30.9095 156.82 30.9135 158.007C30.9176 159.195 31.8826 160.155 33.0702 160.153C34.2578 160.151 35.2195 159.188 35.2195 158C35.2151 156.808 34.2465 155.845 33.0545 155.847H33.0555ZM26.9456 155.847C26.1764 155.843 25.4634 156.249 25.0753 156.914C24.6871 157.578 24.6827 158.398 25.0638 159.067C25.4448 159.735 26.1534 160.149 26.9226 160.153H29.1095V155.847H26.9456ZM30.8895 149.77V154.077H33.0535C34.211 154.082 35.1661 153.172 35.2165 152.016V152.451V151.923C35.2116 150.732 34.2451 149.77 33.0545 149.77H30.8895ZM26.9436 149.77C26.1744 149.77 25.4636 150.18 25.079 150.847C24.6944 151.513 24.6944 152.333 25.079 153C25.4636 153.666 26.1744 154.076 26.9436 154.076H29.1095V149.77H26.9436Z" fill="black"/>
<rect x="218" y="62" width="40" height="40" rx="20" fill="white"/>
<path d="M237.984 90.988L231.57 89.162L230.137 73.012H245.866L244.437 89.162L237.984 90.988ZM233.692 83.297L233.937 86.42L238 87.505L242.028 86.425L242.587 80.312H235.403L235.23 78.279H242.763L242.937 76.318H233.067L233.589 82.318H240.425L240.182 84.884L238.003 85.484L235.787 84.877L235.646 83.297H233.692Z" fill="black"/>
</svg>
