<svg width="0" height="0" class="hidden">
  <symbol fill="none" xmlns="http://www.w3.org/2000/svg" viewBox="0 0 24 24" id="figma-icon">
    <path d="M8.94455 22.0001C7.27964 22.013 5.78825 20.9726 5.22555 19.4056C4.66286 17.8386 5.1517 16.0871 6.44455 15.038C5.52755 14.2958 4.99478 13.1792 4.99478 11.9995C4.99478 10.8198 5.52755 9.7032 6.44455 8.96102C5.15128 7.91226 4.66215 6.16065 5.22495 4.59358C5.78776 3.02651 7.27954 1.98634 8.94455 1.99989H15.0545C16.7195 1.98634 18.2113 3.02651 18.7741 4.59358C19.3369 6.16065 18.8478 7.91226 17.5545 8.96102C18.8474 10.0101 19.3362 11.7616 18.7735 13.3286C18.2108 14.8956 16.7195 15.936 15.0545 15.923C14.2855 15.924 13.533 15.7001 12.8895 15.279V18.079C12.8802 20.25 11.1155 22.0039 8.94455 22.0001ZM8.92255 15.924C7.73809 15.9427 6.79124 16.9148 6.80367 18.0993C6.81609 19.2839 7.78311 20.2359 8.9677 20.2298C10.1523 20.2236 11.1094 19.2616 11.1095 18.077V15.924H8.92155H8.92255ZM15.0555 9.84702C13.8679 9.85309 12.9095 10.8197 12.9135 12.0073C12.9176 13.1949 13.8826 14.155 15.0702 14.153C16.2578 14.151 17.2195 13.1877 17.2195 12C17.2151 10.8081 16.2465 9.84481 15.0545 9.84702H15.0555ZM8.94555 9.84699C8.17636 9.84291 7.4634 10.2495 7.07525 10.9136C6.68709 11.5776 6.68271 12.3984 7.06375 13.0666C7.44478 13.7348 8.15336 14.1489 8.92255 14.153H11.1095V9.84699H8.94555ZM12.8895 3.77002V8.07704H15.0535C16.211 8.08242 17.1661 7.17244 17.2165 6.01602V6.45102V5.92302C17.2116 4.7325 16.2451 3.77002 15.0545 3.77002H12.8895ZM8.94355 3.77002C8.17436 3.77002 7.46359 4.18038 7.079 4.84652C6.6944 5.51266 6.6944 6.33338 7.079 6.99952C7.46359 7.66566 8.17436 8.07602 8.94355 8.07602H11.1095V3.77002H8.94355Z" fill="black"></path>
  </symbol>
  <symbol fill="none" xmlns="http://www.w3.org/2000/svg" viewBox="0 0 54 53" id="hero-svg-icon">
    <circle cx="36.0075" cy="35.1047" r="17.7809" fill="#0063FF"></circle>
    <circle cx="17.7809" cy="17.7809" r="17.7809" fill="#FF6333"></circle>
    <mask id="mask0_526_13" maskUnits="userSpaceOnUse" x="18" y="17" width="37" height="36">
      <circle cx="36.2204" cy="34.9862" r="17.7809" fill="#111314"></circle>
    </mask>
    <g mask="url(#mask0_526_13)">
      <circle cx="17.9938" cy="17.6625" r="17.7809" fill="#111314"></circle>
    </g>
  </symbol>
  <symbol fill="none" xmlns="http://www.w3.org/2000/svg" viewBox="0 0 24 24" id="html-icon">
    <path d="M11.9837 20.988L5.56972 19.162L4.13672 3.01196H19.8657L18.4367 19.162L11.9837 20.988ZM7.69172 13.297L7.93672 16.42L11.9997 17.505L16.0277 16.425L16.5867 10.312H9.40272L9.22972 8.27896H16.7627L16.9367 6.31796H7.06672L7.58872 12.318H14.4247L14.1817 14.884L12.0027 15.484L9.78672 14.877L9.64572 13.297H7.69172Z" fill="black"></path>
  </symbol>
  <symbol fill="none" xmlns="http://www.w3.org/2000/svg" viewBox="0 0 24 24" id="instagram">
    <path d="M17 2H7C4.23858 2 2 4.23858 2 7V17C2 19.7614 4.23858 22 7 22H17C19.7614 22 22 19.7614 22 17V7C22 4.23858 19.7614 2 17 2Z" stroke="black" stroke-width="1.3" stroke-linecap="round" stroke-linejoin="round"></path>
    <path d="M15.9567 11.4133C16.0802 12.2455 15.938 13.0955 15.5505 13.8423C15.163 14.5891 14.5499 15.1947 13.7984 15.5729C13.0468 15.9512 12.1952 16.0829 11.3645 15.9492C10.5339 15.8155 9.7665 15.4234 9.17158 14.8284C8.57666 14.2335 8.18447 13.4661 8.05081 12.6355C7.91714 11.8048 8.0488 10.9532 8.42706 10.2016C8.80533 9.45012 9.41092 8.83701 10.1577 8.44951C10.9045 8.06201 11.7545 7.91986 12.5867 8.04327C13.4357 8.16915 14.2216 8.56473 14.8284 9.17158C15.4353 9.77842 15.8309 10.5643 15.9567 11.4133Z" stroke="black" stroke-width="1.3" stroke-linecap="round" stroke-linejoin="round"></path>
    <circle cx="18" cy="6" r="1" stroke="black" stroke-width="1.5"></circle>
  </symbol>
  <symbol fill="none" xmlns="http://www.w3.org/2000/svg" viewBox="0 0 24 24" id="javascript-icon">
    <path d="M21 21H3V3H21V21ZM9.1 17.232L7.732 18.076C7.9452 18.5439 8.29075 18.9392 8.726 19.213C9.19884 19.484 9.7361 19.6222 10.281 19.613C10.5668 19.611 10.8515 19.5775 11.13 19.513C11.7126 19.3697 12.2065 18.9849 12.488 18.455C12.7685 17.795 12.8719 17.0732 12.788 16.361C12.788 16.225 12.788 16.086 12.788 15.946C12.793 14.919 12.788 13.874 12.788 12.862C12.788 12.346 12.788 11.829 12.788 11.311V11.269H11.1C11.1 11.995 11.1 12.7193 11.1 13.442C11.1 14.169 11.1 14.895 11.1 15.623C11.1 15.809 11.1 15.991 11.1 16.166C11.1502 16.6651 11.114 17.1692 10.993 17.656C10.8477 17.9364 10.5488 18.1026 10.234 18.078C10.093 18.0776 9.95281 18.0564 9.818 18.015C9.54717 17.8734 9.32884 17.6488 9.195 17.374L9.162 17.318C9.131 17.265 9.11 17.228 9.1 17.228V17.232ZM15.049 17.032L13.676 17.819C13.7884 18.065 13.9435 18.2891 14.134 18.481C14.181 18.533 14.234 18.589 14.283 18.651C14.9544 19.2514 15.8318 19.5692 16.732 19.538C17.8969 19.6528 18.9975 18.9839 19.432 17.897V17.889C19.5458 17.4895 19.564 17.0688 19.485 16.661L19.519 16.71C19.371 15.781 18.698 15.136 17.267 14.555C17.156 14.503 17.041 14.455 16.929 14.405C16.484 14.213 16.064 14.033 15.918 13.705C15.8529 13.5363 15.8411 13.3517 15.884 13.176C15.9875 12.8241 16.3271 12.5959 16.692 12.633C16.8034 12.633 16.9142 12.6492 17.021 12.681C17.3501 12.7919 17.6163 13.0378 17.753 13.357C18.528 12.85 18.528 12.85 19.069 12.513C18.9452 12.3017 18.798 12.1052 18.63 11.927C18.1167 11.3767 17.3801 11.0909 16.63 11.151H16.51L15.982 11.218C15.4861 11.3293 15.0375 11.5929 14.699 11.972C14.3011 12.4696 14.1219 13.1073 14.2023 13.7394C14.2828 14.3715 14.6161 14.9439 15.126 15.326C15.564 15.6258 16.0364 15.8718 16.533 16.059C17.174 16.329 17.727 16.559 17.839 16.98C17.9068 17.2238 17.8568 17.4853 17.704 17.687C17.4325 17.9551 17.057 18.0903 16.677 18.057C16.5724 18.0567 16.4678 18.05 16.364 18.037C15.7985 17.9103 15.317 17.5418 15.047 17.029L15.049 17.032Z" fill="black"></path>
  </symbol>
  <symbol xmlns="http://www.w3.org/2000/svg" viewBox="0 0 128 128" id="jquery">
    <path fill="#0868AC" d="M47.961 79.02l.193.094.344.166c.439.209.882.416 1.329.615l.281.125c.513.225 1.029.439 1.551.645l.378.148c.482.188.972.37 1.463.543l.184.063c.539.188 1.083.363 1.632.534l.395.117c.558.169 1.109.37 1.685.477 36.554 6.665 47.171-21.967 47.171-21.967-8.918 11.618-24.747 14.683-39.745 11.271-.568-.128-1.12-.306-1.674-.47l-.417-.126c-.541-.166-1.079-.341-1.612-.524l-.221-.08c-.478-.168-.951-.346-1.421-.527l-.398-.156c-.516-.203-1.028-.416-1.534-.638l-.307-.136c-.435-.197-.866-.396-1.294-.602l-.375-.18c-.336-.164-.669-.339-1.001-.51l-.668-.35c-.405-.217-.803-.442-1.199-.673l-.405-.226c-.527-.311-1.048-.632-1.563-.958l-.421-.28c-.374-.241-.746-.486-1.112-.739l-.358-.252c-.354-.25-.704-.503-1.051-.76l-.466-.353c-.318-.243-.635-.488-.948-.74l-.423-.34c-.398-.328-.792-.657-1.182-.995l-.129-.109c-.423-.368-.836-.747-1.244-1.127l-.35-.337c-.303-.287-.6-.577-.893-.874l-.35-.35c-.372-.381-.737-.767-1.095-1.158l-.054-.058c-.379-.414-.749-.837-1.111-1.264l-.291-.346c-.27-.325-.538-.655-.799-.988l-.293-.364c-.315-.408-.622-.815-.923-1.229-8.326-11.358-11.318-27.023-4.663-39.888l-5.899 7.482c-7.559 10.863-6.617 24.997-.844 36.541l.423.821.271.52.168.299.301.539c.179.316.362.63.55.944l.315.519c.208.336.421.668.64 1l.272.422c.301.448.609.896.926 1.336l.027.035.156.211c.275.379.558.753.844 1.123l.318.404c.255.321.516.641.78.959l.298.355c.355.419.717.835 1.087 1.242l.022.023.042.046c.36.394.73.778 1.104 1.164l.354.357c.29.292.584.579.882.865l.361.343c.397.374.798.741 1.208 1.101l.02.015.21.18c.361.312.729.623 1.099.928l.455.362c.302.242.608.481.916.716l.489.372c.34.25.682.496 1.027.737l.375.266.103.073c.328.226.663.442.998.659l.432.288c.513.325 1.035.646 1.562.956l.432.244c.388.223.777.442 1.172.656l.648.336.84.437zM51.654 42.225c.819 1.174 1.726 2.57 2.813 3.514.394.434.806.856 1.226 1.273l.324.318c.409.396.824.785 1.252 1.164l.052.044.012.013c.475.416.965.816 1.463 1.21l.333.26c.5.383 1.009.759 1.531 1.118l.045.033.698.46.332.22c.373.238.75.472 1.135.694l.16.093c.331.191.667.379 1.003.561l.356.187.702.363.106.048c.482.237.968.465 1.464.682l.323.133c.396.168.797.333 1.199.487l.514.188c.366.136.732.26 1.102.383l.499.16c.526.163 1.045.369 1.593.46 28.222 4.677 34.738-17.054 34.738-17.054-5.874 8.459-17.248 12.494-29.386 9.344-.539-.142-1.071-.295-1.598-.462l-.481-.155c-.375-.121-.748-.25-1.118-.385l-.504-.188c-.405-.156-.807-.317-1.204-.485l-.324-.138c-.498-.217-.989-.445-1.472-.685l-.739-.376-.426-.219c-.314-.17-.626-.348-.934-.527l-.223-.127c-.383-.223-.759-.453-1.132-.689l-.341-.229-.732-.484c-.521-.359-1.027-.734-1.525-1.115l-.343-.271c-5.313-4.193-9.524-9.927-11.527-16.428-2.098-6.74-1.646-14.308 1.989-20.449l-4.466 6.306c-5.466 7.865-5.169 18.396-.905 26.715.714 1.393 1.517 2.747 2.416 4.035zM81.401 32.494l.701.243.309.098c.333.104.662.226 1.005.29 15.583 3.011 19.811-7.997 20.936-9.617-3.703 5.331-9.925 6.61-17.56 4.757-.603-.146-1.266-.363-1.848-.57-.745-.266-1.479-.568-2.193-.91-1.356-.652-2.648-1.441-3.846-2.347-6.832-5.185-11.076-15.072-6.618-23.126l-2.412 3.324c-3.222 4.743-3.539 10.633-1.303 15.869 2.358 5.56 7.19 9.92 12.829 11.989zM66.359 96.295h-4.226c-.234 0-.467.188-.517.417l-1.5 6.94-1.5 6.94c-.049.229-.282.417-.516.417h-2.991c-2.959 0-2.617-2.047-2.011-4.851l.018-.085.066-.354.012-.066.135-.72.145-.771.154-.785.682-3.332.683-3.332c.047-.23-.107-.419-.341-.419h-4.337c-.234 0-.466.188-.514.418l-.933 4.424-.932 4.425-.002.006-.086.412c-1.074 4.903-.79 9.58 5.048 9.727l.17.003h9.163c.234 0 .467-.188.516-.417l1.976-9.289 1.976-9.29c.049-.23-.103-.417-.338-.418zM21.103 96.246h-4.64c-.235 0-.469.188-.521.416l-.44 1.942-.44 1.942c-.051.229.098.416.333.416h4.676c.235 0 .468-.188.518-.417l.425-1.941.425-1.941c.049-.229-.101-.417-.336-.417zM19.757 102.29h-4.677c-.234 0-.469.188-.521.416l-.657 2.91-.656 2.909-.183.834-.631 2.97-.63 2.971c-.049.229-.15.599-.225.821 0 0-.874 2.6-2.343 2.57l-.184-.004-1.271-.023h-.001c-.234-.003-.469.18-.524.407l-.485 2.039-.484 2.038c-.055.228.093.416.326.42.833.01 2.699.031 3.828.031 3.669 0 5.604-2.033 6.843-7.883l1.451-6.714 1.361-6.297c.049-.227-.103-.415-.337-.415zM105.874 100.716l-.194-.801-.191-.82-.097-.414c-.38-1.477-1.495-2.328-3.917-2.328l-3.77-.004-3.472-.005h-3.907c-.234 0-.466.188-.515.417l-.173.816-.204.964-.057.271-1.759 8.24-1.67 7.822c-.05.23-.066.512-.038.626.028.115.479.209.713.209h3.524c.235 0 .532-.042.66-.094s.317-.513.364-.742l.626-3.099.627-3.1.001-.005.084-.413.76-3.56.671-3.144c.05-.229.281-.416.515-.417l11.089-.005c.235.002.383-.185.33-.414zM120.149 93.476l-.854.003h-3.549c-.235 0-.536.159-.667.353l-7.849 11.498c-.132.194-.283.166-.335-.062l-.578-2.533c-.052-.229-.287-.416-.522-.416h-5.045c-.235 0-.374.184-.31.409l2.261 7.921c.064.226.069.596.011.824l-.985 3.833c-.059.228.085.413.32.413h4.987c.234 0 .474-.186.532-.413l.986-3.833c.058-.229.221-.567.363-.755l12.742-16.911c.142-.188.065-.341-.169-.339l-1.339.008zM80.063 103.395v-.004c-.029.254-.264.441-.499.441h-6.397c-.222 0-.334-.15-.301-.336l.006-.015-.004.002.003-.021.029-.109c.611-1.624 1.855-2.69 4.194-2.69 2.634-.001 3.148 1.285 2.969 2.732zm-1.877-7.384c-8.211 0-10.157 4.984-11.249 10.015-1.091 5.128-.998 9.921 7.5 9.921h1.03l.256-.001h.06l1.02-.003h.018c2.244-.009 4.495-.026 5.406-.033.233-.004.461-.191.509-.42l.344-1.681.067-.327.41-2.006c.047-.229-.106-.418-.341-.418h-7.639c-3.039 0-3.941-.807-3.608-3.181h12.211l-.001.001.008-.001c.194-.003.374-.137.445-.315l.029-.106-.001.001c1.813-6.839 1.293-11.445-6.474-11.446zM39.376 103.369l-.116.409v.001l-.922 3.268-.922 3.267c-.063.227-.308.411-.543.411h-4.88c-3.702 0-4.604-2.896-3.702-7.166.901-4.368 2.668-7.083 6.312-7.358 4.98-.376 5.976 3.126 4.773 7.168zm3.348 7.105s2.301-5.588 2.823-8.814c.713-4.319-1.45-10.585-9.804-10.585-8.306 0-11.914 5.981-13.29 12.484-1.376 6.55.427 12.293 8.686 12.246l6.516-.024 6.089-.022c.234-.002.474-.188.534-.414l1.061-4.046c.059-.228-.084-.414-.319-.416l-1.017-.006-1.017-.006c-.199-.001-.313-.131-.289-.302l.027-.095zM83.844 106.733c0 .155-.125.281-.28.281-.154 0-.28-.126-.28-.281 0-.154.125-.279.28-.279.155 0 .28.125.28.279z"></path>
  </symbol>
  <symbol fill="none" xmlns="http://www.w3.org/2000/svg" viewBox="0 0 24 24" id="leftCircle">
    <path d="M16 12.75C16.4142 12.75 16.75 12.4142 16.75 12C16.75 11.5858 16.4142 11.25 16 11.25V12.75ZM10.672 16.5327C10.9662 16.8243 11.4411 16.8222 11.7327 16.528C12.0243 16.2338 12.0222 15.7589 11.728 15.4673L10.672 16.5327ZM9.78962 14.6022L10.3176 14.0695L9.78962 14.6022ZM9.78962 9.39785L9.26167 8.86516L9.78962 9.39785ZM11.728 8.53269C12.0222 8.24111 12.0243 7.76624 11.7327 7.47204C11.4411 7.17784 10.9662 7.17573 10.672 7.46731L11.728 8.53269ZM8.01591 12.2507L7.27193 12.3455V12.3455L8.01591 12.2507ZM8.01591 11.7493L7.27193 11.6545V11.6545L8.01591 11.7493ZM21.25 12C21.25 17.1086 17.1086 21.25 12 21.25V22.75C17.9371 22.75 22.75 17.9371 22.75 12H21.25ZM12 21.25C6.89137 21.25 2.75 17.1086 2.75 12H1.25C1.25 17.9371 6.06294 22.75 12 22.75V21.25ZM2.75 12C2.75 6.89137 6.89137 2.75 12 2.75V1.25C6.06294 1.25 1.25 6.06294 1.25 12H2.75ZM12 2.75C17.1086 2.75 21.25 6.89137 21.25 12H22.75C22.75 6.06294 17.9371 1.25 12 1.25V2.75ZM16 11.25H8.8V12.75H16V11.25ZM11.728 15.4673L10.3176 14.0695L9.26167 15.1348L10.672 16.5327L11.728 15.4673ZM10.3176 9.93054L11.728 8.53269L10.672 7.46731L9.26167 8.86516L10.3176 9.93054ZM10.3176 14.0695C9.74268 13.4997 9.35733 13.1161 9.09823 12.7935C8.84863 12.4827 8.77852 12.302 8.75989 12.1558L7.27193 12.3455C7.33989 12.8787 7.59426 13.3163 7.92869 13.7328C8.25361 14.1373 8.71182 14.5899 9.26167 15.1348L10.3176 14.0695ZM9.26167 8.86516C8.71182 9.41012 8.25362 9.86265 7.92869 10.2672C7.59427 10.6837 7.33989 11.1213 7.27193 11.6545L8.75989 11.8442C8.77852 11.698 8.84863 11.5173 9.09823 11.2065C9.35733 10.8839 9.74268 10.5003 10.3176 9.93054L9.26167 8.86516ZM8.75989 12.1558C8.7533 12.1041 8.75 12.052 8.75 12H7.25C7.25 12.1154 7.25731 12.2308 7.27193 12.3455L8.75989 12.1558ZM8.75 12C8.75 11.948 8.7533 11.8959 8.75989 11.8442L7.27193 11.6545C7.25731 11.7692 7.25 11.8846 7.25 12H8.75ZM8.8 11.25H8V12.75H8.8V11.25Z" fill="black"></path>
  </symbol>
  <symbol fill="none" xmlns="http://www.w3.org/2000/svg" viewBox="0 0 258 221" id="letswork">
    <path fill-rule="evenodd" clip-rule="evenodd" d="M126.176 41.0982C118.905 42.1546 111.057 44.4495 104.57 47.4154C96.1244 51.2776 85.2599 60.1669 79.4083 68.003C62.3994 90.7817 61.4856 122.443 77.1654 145.732C87.5213 161.115 102.493 171.075 121.325 175.111C126.796 176.284 141.052 176.299 146.859 175.138C160.875 172.338 171.97 166.382 182.323 156.101C192.37 146.124 198.124 135.606 201.104 121.768C202.299 116.223 202.299 100.787 201.104 95.2421C199.184 86.3258 195.523 77.7521 190.332 70.013C187.02 65.0755 177.453 55.7348 172.172 52.2829C160.216 44.4683 150.014 41.3319 135.646 41.0533C131.2 40.9674 126.938 40.9875 126.176 41.0982ZM152.723 71.5227C155.49 72.7131 156.369 73.5587 157.652 76.2625C160.45 82.1599 158.027 91.272 152.027 97.4145C149.596 99.9033 149.015 100.273 147.533 100.273C146.229 100.273 145.655 100.007 145.077 99.1327C143.994 97.4963 144.508 96.1536 147.483 92.8525C152.003 87.8378 153.727 82.9095 152.071 79.7383C150.174 76.1066 142.992 75.9712 135.374 79.4237C127.793 82.8597 117.227 92.1121 111.042 100.73C100.375 115.595 96.8631 133.13 103.334 139.224C107.744 143.378 115.924 142.38 124.604 136.629L128.255 134.21V136.621C128.255 137.947 128.378 139.645 128.53 140.393C128.801 141.735 128.728 141.792 123.563 144.343C117.391 147.389 114.112 148.293 109.233 148.293C88.218 148.293 87.9006 119.901 108.623 93.6414C111.787 89.6306 118.315 83.1062 122.159 80.1115C132.859 71.776 145.232 68.2993 152.723 71.5227ZM152.502 104.008C153.723 104.958 153.766 105.134 153.561 108.239C153.316 111.946 151.52 116.249 147.884 121.841C145.36 125.722 139.376 133.201 138.795 133.201C137.718 133.201 140.967 124.903 144.045 119.792C145.357 117.612 147.464 114.682 148.725 113.281C150.435 111.381 150.885 110.602 150.494 110.215C149.79 109.518 147.403 111.826 144.468 116.041C139.747 122.822 137.087 129.501 136.701 135.542C136.471 139.138 136.536 139.57 137.434 140.459C138.745 141.757 139.597 141.692 142.947 140.034C146.522 138.266 151.618 133.57 155.982 128.023L159.374 123.712L162.007 129.225L160.845 130.87C158.726 133.87 153.875 139.158 151.326 141.244C149.944 142.376 147.264 144.064 145.372 144.997C142.307 146.508 141.546 146.693 138.406 146.693C135.291 146.693 134.692 146.55 133.25 145.461C130.68 143.521 129.909 141.444 129.969 136.631C130.108 125.564 139.457 108.064 147.297 104.196C150.206 102.761 150.87 102.737 152.502 104.008ZM169.766 109.614C171.426 110.464 172.144 112.107 172.139 115.044C172.135 117.381 170.537 121.741 169.438 122.413C168.508 122.983 167.327 119.849 167.344 116.851C167.36 113.924 167.197 113.585 166.23 114.542C165.021 115.738 165.615 118.919 168.022 124.134C169.336 126.981 170.568 130.446 170.823 132.01C171.27 134.761 171.257 134.819 169.938 135.945C169.201 136.574 168.201 137.322 167.715 137.607C167.228 137.892 166.977 138.276 167.155 138.462C167.786 139.117 169.784 138.21 172.192 136.175C174.863 133.918 176.268 133.626 177.687 135.031C179.163 136.491 178.829 137.754 176.362 140.047C169.317 146.595 156.898 148.315 156.898 142.742C156.898 141.989 157.102 140.997 157.35 140.537C157.893 139.532 160.148 138.689 162.291 138.689C163.54 138.689 163.94 138.456 164.301 137.516C165.375 134.72 164.902 132.589 161.292 123.943C159.203 118.941 159.015 115.486 160.672 112.557C162.478 109.365 166.645 108.016 169.766 109.614Z" fill="#191A1E"></path>
    <rect x="27" width="50" height="50" rx="25" fill="white"></rect>
    <path d="M61 34H43V16H61V34ZM49.1 30.232L47.732 31.076C47.9452 31.5439 48.2907 31.9392 48.726 32.213C49.1988 32.484 49.7361 32.6222 50.281 32.613C50.5668 32.611 50.8515 32.5775 51.13 32.513C51.7126 32.3697 52.2065 31.9849 52.488 31.455C52.7685 30.795 52.8719 30.0732 52.788 29.361C52.788 29.225 52.788 29.086 52.788 28.946C52.793 27.919 52.788 26.874 52.788 25.862C52.788 25.346 52.788 24.829 52.788 24.311V24.269H51.1C51.1 24.995 51.1 25.7193 51.1 26.442C51.1 27.169 51.1 27.895 51.1 28.623C51.1 28.809 51.1 28.991 51.1 29.166C51.1502 29.6651 51.114 30.1692 50.993 30.656C50.8477 30.9364 50.5488 31.1026 50.234 31.078C50.093 31.0776 49.9528 31.0564 49.818 31.015C49.5472 30.8734 49.3288 30.6488 49.195 30.374L49.162 30.318C49.131 30.265 49.11 30.228 49.1 30.228V30.232ZM55.049 30.032L53.676 30.819C53.7884 31.065 53.9435 31.2891 54.134 31.481C54.181 31.533 54.234 31.589 54.283 31.651C54.9544 32.2514 55.8318 32.5692 56.732 32.538C57.8969 32.6528 58.9975 31.9839 59.432 30.897V30.889C59.5458 30.4895 59.564 30.0688 59.485 29.661L59.519 29.71C59.371 28.781 58.698 28.136 57.267 27.555C57.156 27.503 57.041 27.455 56.929 27.405C56.484 27.213 56.064 27.033 55.918 26.705C55.8529 26.5363 55.8411 26.3517 55.884 26.176C55.9875 25.8241 56.3271 25.5959 56.692 25.633C56.8034 25.633 56.9142 25.6492 57.021 25.681C57.3501 25.7919 57.6163 26.0378 57.753 26.357C58.528 25.85 58.528 25.85 59.069 25.513C58.9452 25.3017 58.798 25.1052 58.63 24.927C58.1167 24.3767 57.3801 24.0909 56.63 24.151H56.51L55.982 24.218C55.4861 24.3293 55.0375 24.5929 54.699 24.972C54.3011 25.4696 54.1219 26.1073 54.2023 26.7394C54.2828 27.3715 54.6161 27.9439 55.126 28.326C55.564 28.6258 56.0364 28.8718 56.533 29.059C57.174 29.329 57.727 29.559 57.839 29.98C57.9068 30.2238 57.8568 30.4853 57.704 30.687C57.4325 30.9551 57.057 31.0903 56.677 31.057C56.5724 31.0567 56.4678 31.05 56.364 31.037C55.7985 30.9103 55.317 30.5418 55.047 30.029L55.049 30.032Z" fill="black"></path>
    <rect x="170" y="181" width="40" height="40" rx="20" fill="white"></rect>
    <path d="M189.987 208.191L184.892 206.741L183.754 193.914H196.246L195.11 206.741L189.99 208.191H189.987ZM186.578 202.081L186.751 204.375L190.001 205.386L193.194 204.474L193.918 196.536H186.078L186.204 198.095H192.228L192.079 199.714H188.128L188.271 201.244H191.951L191.733 203.34L190.002 203.82L188.242 203.34L188.13 202.084H186.578V202.081Z" fill="black"></path>
    <rect y="128" width="60" height="60" rx="30" fill="white"></rect>
    <path d="M26.9446 168C25.2796 168.013 23.7883 166.973 23.2256 165.406C22.6629 163.839 23.1517 162.087 24.4446 161.038C23.5276 160.296 22.9948 159.179 22.9948 157.999C22.9948 156.82 23.5276 155.703 24.4446 154.961C23.1513 153.912 22.6622 152.161 23.225 150.594C23.7878 149.027 25.2795 147.986 26.9446 148H33.0545C34.7195 147.986 36.2113 149.027 36.7741 150.594C37.3369 152.161 36.8478 153.912 35.5545 154.961C36.8474 156.01 37.3362 157.762 36.7735 159.329C36.2108 160.896 34.7195 161.936 33.0545 161.923C32.2855 161.924 31.533 161.7 30.8895 161.279V164.079C30.8802 166.25 29.1155 168.004 26.9446 168ZM26.9226 161.924C25.7381 161.943 24.7912 162.915 24.8037 164.099C24.8161 165.284 25.7831 166.236 26.9677 166.23C28.1523 166.224 29.1094 165.262 29.1095 164.077V161.924H26.9216H26.9226ZM33.0555 155.847C31.8679 155.853 30.9095 156.82 30.9135 158.007C30.9176 159.195 31.8826 160.155 33.0702 160.153C34.2578 160.151 35.2195 159.188 35.2195 158C35.2151 156.808 34.2465 155.845 33.0545 155.847H33.0555ZM26.9456 155.847C26.1764 155.843 25.4634 156.249 25.0753 156.914C24.6871 157.578 24.6827 158.398 25.0638 159.067C25.4448 159.735 26.1534 160.149 26.9226 160.153H29.1095V155.847H26.9456ZM30.8895 149.77V154.077H33.0535C34.211 154.082 35.1661 153.172 35.2165 152.016V152.451V151.923C35.2116 150.732 34.2451 149.77 33.0545 149.77H30.8895ZM26.9436 149.77C26.1744 149.77 25.4636 150.18 25.079 150.847C24.6944 151.513 24.6944 152.333 25.079 153C25.4636 153.666 26.1744 154.076 26.9436 154.076H29.1095V149.77H26.9436Z" fill="black"></path>
    <rect x="218" y="62" width="40" height="40" rx="20" fill="white"></rect>
    <path d="M237.984 90.988L231.57 89.162L230.137 73.012H245.866L244.437 89.162L237.984 90.988ZM233.692 83.297L233.937 86.42L238 87.505L242.028 86.425L242.587 80.312H235.403L235.23 78.279H242.763L242.937 76.318H233.067L233.589 82.318H240.425L240.182 84.884L238.003 85.484L235.787 84.877L235.646 83.297H233.692Z" fill="black"></path>
  </symbol>
  <symbol fill="none" xmlns="http://www.w3.org/2000/svg" viewBox="0 0 24 24" id="linkedin">
    <path d="M16 8C17.5913 8 19.1174 8.63214 20.2426 9.75736C21.3679 10.8826 22 12.4087 22 14V21H18V14C18 13.4696 17.7893 12.9609 17.4142 12.5858C17.0391 12.2107 16.5304 12 16 12C15.4696 12 14.9609 12.2107 14.5858 12.5858C14.2107 12.9609 14 13.4696 14 14V21H10V14C10 12.4087 10.6321 10.8826 11.7574 9.75736C12.8826 8.63214 14.4087 8 16 8V8Z" stroke="black" stroke-width="1.3" stroke-miterlimit="2.28281" stroke-linecap="round" stroke-linejoin="round"></path>
    <path d="M6 9H2V21H6V9Z" stroke="black" stroke-width="1.3" stroke-miterlimit="2.28281" stroke-linecap="round" stroke-linejoin="round"></path>
    <path d="M4 6C5.10457 6 6 5.10457 6 4C6 2.89543 5.10457 2 4 2C2.89543 2 2 2.89543 2 4C2 5.10457 2.89543 6 4 6Z" stroke="black" stroke-width="1.3" stroke-miterlimit="2.28281" stroke-linecap="round" stroke-linejoin="round"></path>
  </symbol>
  <symbol fill="none" xmlns="http://www.w3.org/2000/svg" viewBox="0 0 24 24" id="pad-icon">
    <path d="M16 4H18C18.5304 4 19.0391 4.21071 19.4142 4.58579C19.7893 4.96086 20 5.46957 20 6V20C20 20.5304 19.7893 21.0391 19.4142 21.4142C19.0391 21.7893 18.5304 22 18 22H6C5.46957 22 4.96086 21.7893 4.58579 21.4142C4.21071 21.0391 4 20.5304 4 20V6C4 5.46957 4.21071 4.96086 4.58579 4.58579C4.96086 4.21071 5.46957 4 6 4H8" stroke="black" stroke-width="1.5" stroke-linecap="round" stroke-linejoin="round"></path>
    <path d="M15 2H9C8.44772 2 8 2.44772 8 3V5C8 5.55228 8.44772 6 9 6H15C15.5523 6 16 5.55228 16 5V3C16 2.44772 15.5523 2 15 2Z" stroke="black" stroke-width="1.5" stroke-linecap="round" stroke-linejoin="round"></path>
  </symbol>
  <symbol fill="none" xmlns="http://www.w3.org/2000/svg" viewBox="0 0 24 24" id="pen-icon">
    <path d="M12 20H21" stroke="black" stroke-width="1.5" stroke-linecap="round" stroke-linejoin="round"></path>
    <path d="M16.5 3.49998C16.8978 3.10216 17.4374 2.87866 18 2.87866C18.2786 2.87866 18.5544 2.93353 18.8118 3.04014C19.0692 3.14674 19.303 3.303 19.5 3.49998C19.697 3.69697 19.8532 3.93082 19.9598 4.18819C20.0665 4.44556 20.1213 4.72141 20.1213 4.99998C20.1213 5.27856 20.0665 5.55441 19.9598 5.81178C19.8532 6.06915 19.697 6.303 19.5 6.49998L7 19L3 20L4 16L16.5 3.49998Z" stroke="black" stroke-width="1.5" stroke-linecap="round" stroke-linejoin="round"></path>
  </symbol>
  <symbol xmlns="http://www.w3.org/2000/svg" preserveAspectRatio="xMinYMin meet" viewBox="0 0 256 230" id="react">
    <path fill="#FFF" d="M.754 114.75c0 19.215 18.763 37.152 48.343 47.263-5.907 29.737-1.058 53.706 15.136 63.045 16.645 9.6 41.443 2.955 64.98-17.62 22.943 19.744 46.13 27.514 62.31 18.148 16.63-9.627 21.687-35.221 15.617-65.887 30.81-10.186 48.044-25.481 48.044-44.949 0-18.769-18.797-35.006-47.979-45.052 6.535-31.933.998-55.32-15.867-65.045-16.259-9.376-39.716-1.204-62.996 19.056C104.122 2.205 80.897-4.36 64.05 5.392 47.806 14.795 43.171 39.2 49.097 69.487 20.515 79.452.754 96.057.754 114.75z"></path>
    <path fill="#53C1DE" d="M201.025 79.674a151.364 151.364 0 0 0-7.274-2.292 137.5 137.5 0 0 0 1.124-4.961c5.506-26.728 1.906-48.26-10.388-55.348-11.787-6.798-31.065.29-50.535 17.233a151.136 151.136 0 0 0-5.626 5.163 137.573 137.573 0 0 0-3.744-3.458c-20.405-18.118-40.858-25.752-53.139-18.643-11.776 6.817-15.264 27.06-10.307 52.39a150.91 150.91 0 0 0 1.67 7.484c-2.894.822-5.689 1.698-8.363 2.63-23.922 8.34-39.2 21.412-39.2 34.97 0 14.004 16.4 28.05 41.318 36.566a128.44 128.44 0 0 0 6.11 1.91 147.813 147.813 0 0 0-1.775 8.067c-4.726 24.89-1.035 44.653 10.71 51.428 12.131 6.995 32.491-.195 52.317-17.525 1.567-1.37 3.14-2.823 4.715-4.346a148.34 148.34 0 0 0 6.108 5.573c19.204 16.525 38.17 23.198 49.905 16.405 12.12-7.016 16.058-28.247 10.944-54.078-.39-1.973-.845-3.988-1.355-6.04 1.43-.422 2.833-.858 4.202-1.312 25.904-8.582 42.757-22.457 42.757-36.648 0-13.607-15.77-26.767-40.174-35.168z"></path>
    <path fill="#FFF" d="M195.406 142.328c-1.235.409-2.503.804-3.795 1.187-2.86-9.053-6.72-18.68-11.442-28.625 4.507-9.71 8.217-19.213 10.997-28.208 2.311.67 4.555 1.375 6.717 2.12 20.91 7.197 33.664 17.84 33.664 26.04 0 8.735-13.775 20.075-36.14 27.486zm-9.28 18.389c2.261 11.422 2.584 21.749 1.086 29.822-1.346 7.254-4.052 12.09-7.398 14.027-7.121 4.122-22.35-1.236-38.772-15.368-1.883-1.62-3.78-3.35-5.682-5.18 6.367-6.964 12.73-15.06 18.94-24.05 10.924-.969 21.244-2.554 30.603-4.717.46 1.86.87 3.683 1.223 5.466zm-93.85 43.137c-6.957 2.457-12.498 2.527-15.847.596-7.128-4.11-10.09-19.98-6.049-41.265a138.507 138.507 0 0 1 1.65-7.502c9.255 2.047 19.5 3.52 30.45 4.408 6.251 8.797 12.798 16.883 19.396 23.964a118.863 118.863 0 0 1-4.305 3.964c-8.767 7.664-17.552 13.1-25.294 15.835zm-32.593-61.58c-11.018-3.766-20.117-8.66-26.354-14-5.604-4.8-8.434-9.565-8.434-13.432 0-8.227 12.267-18.722 32.726-25.855a139.276 139.276 0 0 1 7.777-2.447c2.828 9.197 6.537 18.813 11.013 28.537-4.534 9.869-8.296 19.638-11.15 28.943a118.908 118.908 0 0 1-5.578-1.746zm10.926-74.37c-4.247-21.703-1.427-38.074 5.67-42.182 7.56-4.376 24.275 1.864 41.893 17.507 1.126 1 2.257 2.047 3.39 3.13-6.564 7.049-13.051 15.074-19.248 23.82-10.627.985-20.8 2.567-30.152 4.686a141.525 141.525 0 0 1-1.553-6.962zm97.467 24.067a306.982 306.982 0 0 0-6.871-11.3c7.21.91 14.117 2.12 20.603 3.601-1.947 6.241-4.374 12.767-7.232 19.457a336.42 336.42 0 0 0-6.5-11.758zm-39.747-38.714c4.452 4.823 8.911 10.209 13.297 16.052a284.245 284.245 0 0 0-26.706-.006c4.39-5.789 8.887-11.167 13.409-16.046zm-40.002 38.78a285.24 285.24 0 0 0-6.378 11.685c-2.811-6.667-5.216-13.222-7.18-19.552 6.447-1.443 13.322-2.622 20.485-3.517a283.79 283.79 0 0 0-6.927 11.384zm7.133 57.683c-7.4-.826-14.379-1.945-20.824-3.348 1.995-6.442 4.453-13.138 7.324-19.948a283.494 283.494 0 0 0 6.406 11.692 285.27 285.27 0 0 0 7.094 11.604zm33.136 27.389c-4.575-4.937-9.138-10.397-13.595-16.27 4.326.17 8.737.256 13.22.256 4.606 0 9.159-.103 13.64-.303-4.4 5.98-8.843 11.448-13.265 16.317zm46.072-51.032c3.02 6.884 5.566 13.544 7.588 19.877-6.552 1.495-13.625 2.699-21.078 3.593a337.537 337.537 0 0 0 6.937-11.498 306.632 306.632 0 0 0 6.553-11.972zm-14.915 7.15a316.478 316.478 0 0 1-10.84 17.49c-6.704.479-13.632.726-20.692.726-7.031 0-13.871-.219-20.458-.646A273.798 273.798 0 0 1 96.72 133.28a271.334 271.334 0 0 1-9.64-18.206 273.864 273.864 0 0 1 9.611-18.216v.002a271.252 271.252 0 0 1 10.956-17.442c6.72-.508 13.61-.774 20.575-.774 6.996 0 13.895.268 20.613.78a290.704 290.704 0 0 1 10.887 17.383 316.418 316.418 0 0 1 9.741 18.13 290.806 290.806 0 0 1-9.709 18.29zm19.913-107.792c7.566 4.364 10.509 21.961 5.755 45.038a127.525 127.525 0 0 1-1.016 4.492c-9.374-2.163-19.554-3.773-30.212-4.773-6.209-8.841-12.642-16.88-19.1-23.838a141.92 141.92 0 0 1 5.196-4.766c16.682-14.518 32.273-20.25 39.377-16.153z"></path>
    <path fill="#53C1DE" d="M128.221 94.665c11.144 0 20.177 9.034 20.177 20.177 0 11.144-9.033 20.178-20.177 20.178-11.143 0-20.177-9.034-20.177-20.178 0-11.143 9.034-20.177 20.177-20.177"></path>
  </symbol>
  <symbol fill="none" xmlns="http://www.w3.org/2000/svg" viewBox="0 0 24 24" id="rightCircle">
    <path d="M8 11.25C7.58579 11.25 7.25 11.5858 7.25 12C7.25 12.4142 7.58579 12.75 8 12.75V11.25ZM15.2 12V11.25V12ZM13.328 7.46731C13.0338 7.17572 12.5589 7.17784 12.2673 7.47204C11.9757 7.76624 11.9778 8.24111 12.272 8.53269L13.328 7.46731ZM14.2104 9.39785L13.6824 9.93054L14.2104 9.39785ZM14.2104 14.6022L13.6824 14.0695L14.2104 14.6022ZM12.272 15.4673C11.9778 15.7589 11.9757 16.2338 12.2673 16.528C12.5589 16.8222 13.0338 16.8243 13.328 16.5327L12.272 15.4673ZM15.9841 11.7493L16.7281 11.6545L16.7281 11.6545L15.9841 11.7493ZM15.9841 12.2507L16.7281 12.3455L16.7281 12.3455L15.9841 12.2507ZM16 12H16.75H16ZM21.25 12C21.25 17.1086 17.1086 21.25 12 21.25V22.75C17.9371 22.75 22.75 17.9371 22.75 12H21.25ZM12 21.25C6.89137 21.25 2.75 17.1086 2.75 12H1.25C1.25 17.9371 6.06294 22.75 12 22.75V21.25ZM2.75 12C2.75 6.89137 6.89137 2.75 12 2.75V1.25C6.06294 1.25 1.25 6.06294 1.25 12H2.75ZM12 2.75C17.1086 2.75 21.25 6.89137 21.25 12H22.75C22.75 6.06294 17.9371 1.25 12 1.25V2.75ZM8 12.75L15.2 12.75V11.25L8 11.25V12.75ZM12.272 8.53269L13.6824 9.93054L14.7383 8.86515L13.328 7.46731L12.272 8.53269ZM13.6824 14.0695L12.272 15.4673L13.328 16.5327L14.7383 15.1348L13.6824 14.0695ZM13.6824 9.93054C14.2573 10.5003 14.6427 10.8839 14.9018 11.2065C15.1514 11.5173 15.2215 11.698 15.2401 11.8442L16.7281 11.6545C16.6601 11.1213 16.4057 10.6837 16.0713 10.2672C15.7464 9.86265 15.2882 9.41012 14.7383 8.86515L13.6824 9.93054ZM14.7383 15.1348C15.2882 14.5899 15.7464 14.1373 16.0713 13.7328C16.4057 13.3163 16.6601 12.8787 16.7281 12.3455L15.2401 12.1558C15.2215 12.302 15.1514 12.4827 14.9018 12.7935C14.6427 13.1161 14.2573 13.4997 13.6824 14.0695L14.7383 15.1348ZM15.2401 11.8442C15.2467 11.8959 15.25 11.948 15.25 12H16.75C16.75 11.8846 16.7427 11.7692 16.7281 11.6545L15.2401 11.8442ZM15.25 12C15.25 12.052 15.2467 12.1041 15.2401 12.1558L16.7281 12.3455C16.7427 12.2308 16.75 12.1154 16.75 12H15.25ZM15.2 12.75H16V11.25H15.2V12.75Z" fill="black"></path>
  </symbol>
  <symbol fill="none" xmlns="http://www.w3.org/2000/svg" viewBox="0 0 83 89" id="testimonal-c-shape">
    <g filter="url(#filter0_d_526_43)">
      <path d="M78.5 0C34.0411 0 4 36.0411 4 80.5H78.5V0Z" fill="black"></path>
    </g>
    <defs>
      <filter id="filter0_d_526_43" x="0" y="0" width="82.5" height="88.5" filterUnits="userSpaceOnUse" color-interpolation-filters="sRGB">
        <feFlood flood-opacity="0" result="BackgroundImageFix"></feFlood>
        <feColorMatrix in="SourceAlpha" type="matrix" values="0 0 0 0 0 0 0 0 0 0 0 0 0 0 0 0 0 0 127 0" result="hardAlpha"></feColorMatrix>
        <feOffset dy="4"></feOffset>
        <feGaussianBlur stdDeviation="2"></feGaussianBlur>
        <feComposite in2="hardAlpha" operator="out"></feComposite>
        <feColorMatrix type="matrix" values="0 0 0 0 0 0 0 0 0 0 0 0 0 0 0 0 0 0 0.1 0"></feColorMatrix>
        <feBlend mode="normal" in2="BackgroundImageFix" result="effect1_dropShadow_526_43"></feBlend>
        <feBlend mode="normal" in="SourceGraphic" in2="effect1_dropShadow_526_43" result="shape"></feBlend>
      </filter>
    </defs>
  </symbol>
  <symbol fill="none" xmlns="http://www.w3.org/2000/svg" viewBox="0 0 100 100" id="Ashutoshsingh-logo">
    <path fill-rule="evenodd" clip-rule="evenodd" d="M44.2468 0.0727093C38.9007 0.855268 33.1299 2.55522 28.3603 4.75214C22.1503 7.61305 14.1617 14.1977 9.85907 20.0022C-2.64752 36.8753 -3.31943 60.3284 8.20985 77.5796C15.8245 88.9737 26.8333 96.3518 40.68 99.3418C44.703 100.21 55.185 100.222 59.455 99.3618C69.7614 97.2872 77.9188 92.8757 85.5314 85.2601C92.9188 77.8699 97.1497 70.0788 99.3414 59.828C100.22 55.7204 100.22 44.2869 99.3414 40.1793C97.9293 33.5747 95.2376 27.2238 91.4204 21.4911C88.9855 17.8337 81.9507 10.9147 78.0673 8.35767C69.2763 2.5691 61.7751 0.245821 51.2106 0.0395098C47.941 -0.0241789 44.8073 -0.00927305 44.2468 0.0727093ZM63.7668 22.6094C65.8016 23.4912 66.4477 24.1176 67.391 26.1204C69.4485 30.4888 67.6668 37.2385 63.2552 41.7885C61.4677 43.6321 61.0407 43.9058 59.951 43.9058C58.992 43.9058 58.5698 43.7087 58.1448 43.0613C57.3482 41.8491 57.7266 40.8545 59.9143 38.4093C63.2379 34.6947 64.5053 31.0441 63.2875 28.695C61.8923 26.0049 56.6121 25.9046 51.0105 28.462C45.4361 31.0072 37.6666 37.8608 33.1191 44.2446C25.2755 55.2553 22.6935 68.2444 27.4512 72.7585C30.6943 75.8356 36.709 75.096 43.0912 70.836L45.7755 69.0442V70.8302C45.7755 71.8127 45.8665 73.0702 45.9776 73.6247C46.177 74.6184 46.1233 74.661 42.3258 76.55C37.7878 78.8069 35.3767 79.4767 31.7892 79.4767C16.3367 79.4767 16.1034 58.4455 31.3401 38.9937C33.667 36.0226 38.4672 31.1897 41.2935 28.9715C49.1609 22.7971 58.2586 20.2217 63.7668 22.6094ZM63.6047 46.6729C64.5019 47.3765 64.5341 47.5069 64.3833 49.8065C64.2029 52.5529 62.8822 55.7401 60.2085 59.8822C58.353 62.7567 53.953 68.2972 53.526 68.2972C52.7338 68.2972 55.1225 62.1503 57.3859 58.3642C58.351 56.7493 59.8997 54.5791 60.827 53.5414C62.0846 52.1342 62.4155 51.5569 62.1277 51.27C61.61 50.7537 59.8548 52.4635 57.6971 55.5859C54.2261 60.6085 52.2701 65.5559 51.9861 70.0314C51.817 72.6948 51.8645 73.0146 52.5249 73.6732C53.4893 74.635 54.1153 74.5865 56.5785 73.3588C59.2077 72.0488 62.9546 68.5706 66.1633 64.4617L68.657 61.2685L70.5936 65.352L69.7393 66.5705C68.1811 68.7929 64.6136 72.7094 62.7395 74.2549C61.7235 75.093 59.7533 76.3441 58.3619 77.0348C56.1083 78.1538 55.5482 78.291 53.2399 78.291C50.949 78.291 50.5088 78.1849 49.4486 77.3783C47.5589 75.9413 46.9916 74.4032 47.0361 70.838C47.138 62.6401 54.0127 49.6768 59.7774 46.8118C61.9164 45.7487 62.4043 45.7311 63.6047 46.6729ZM76.2988 50.8252C77.5194 51.4546 78.0473 52.6718 78.0432 54.8471C78.0401 56.5782 76.8651 59.808 76.0577 60.3057C75.3732 60.7278 74.5052 58.4065 74.5175 56.1862C74.5294 54.0174 74.4094 53.7664 73.6985 54.4754C72.8098 55.3617 73.2467 57.7178 75.0161 61.5805C75.9826 63.69 76.8882 66.2565 77.0754 67.4148C77.4045 69.4525 77.395 69.4955 76.4249 70.3299C75.8834 70.7957 75.1479 71.3496 74.7903 71.5606C74.4325 71.7717 74.2478 72.0566 74.3789 72.1941C74.8429 72.6792 76.3121 72.0071 78.0826 70.4999C80.0464 68.8281 81.0794 68.6116 82.1229 69.6523C83.2079 70.7344 82.9627 71.6697 81.1487 73.368C75.9683 78.2185 66.8366 79.4922 66.8366 75.3647C66.8366 74.8067 66.9864 74.0716 67.1692 73.7308C67.5683 72.9868 69.2264 72.3625 70.8022 72.3625C71.7204 72.3625 72.0149 72.1894 72.2802 71.4935C73.0697 69.4223 72.7222 67.8436 70.0675 61.4392C68.5313 57.7337 68.3931 55.175 69.6116 53.0052C70.9398 50.6406 74.0039 49.6415 76.2988 50.8252Z" fill="#191A1E"></path>
  </symbol>
  <symbol xmlns="http://www.w3.org/2000/svg" viewBox="0 0 40 40" id="bootstrap">
    <path d="M23,21.4a2.5,2.5,0,0,0-1.73-.55H17v4.37h4.34A2.46,2.46,0,0,0,23,24.64,2.16,2.16,0,0,0,23.66,23,2.09,2.09,0,0,0,23,21.4Zm-.6-2.82A1.8,1.8,0,0,0,23,17.14a1.82,1.82,0,0,0-.53-1.49A2.34,2.34,0,0,0,21,15.22H17v3.86h4A2.2,2.2,0,0,0,22.44,18.58ZM28,8H12a4,4,0,0,0-4,4V28a4,4,0,0,0,4,4H28a4,4,0,0,0,4-4V12A4,4,0,0,0,28,8ZM25.81,24.85a3,3,0,0,1-.92,1.24,4.52,4.52,0,0,1-1.61.82,7.65,7.65,0,0,1-2.33.31H14.52v-14h6.8a4.83,4.83,0,0,1,3,.86,3.05,3.05,0,0,1,1.14,2.61A3.09,3.09,0,0,1,25,18.5a3.37,3.37,0,0,1-1.48,1.17v0a3.05,3.05,0,0,1,2,1.22,4.08,4.08,0,0,1,.67,2.38A3.92,3.92,0,0,1,25.81,24.85Z"></path>
  </symbol>
  <symbol fill="none" xmlns="http://www.w3.org/2000/svg" viewBox="0 0 76 6" id="bottomLine">
    <path d="M1 5.1438C27.6668 0.114756 43.4327 -0.856094 75 5.1438" stroke="black" stroke-width="1.5" stroke-linecap="round"></path>
  </symbol>
  <symbol fill="none" xmlns="http://www.w3.org/2000/svg" viewBox="0 0 30 30" id="circle-svg-icon">
    <circle cx="15" cy="15" r="15" fill="black"></circle>
  </symbol>
  <symbol fill="none" xmlns="http://www.w3.org/2000/svg" viewBox="0 0 24 24" id="code-icon">
    <path d="M16 18L22 12L16 6" stroke="black" stroke-width="1.5" stroke-linecap="round" stroke-linejoin="round"></path>
    <path d="M8 6L2 12L8 18" stroke="black" stroke-width="1.5" stroke-linecap="round" stroke-linejoin="round"></path>
  </symbol>
  <symbol fill="none" xmlns="http://www.w3.org/2000/svg" viewBox="0 0 24 24" id="css-icon">
    <path d="M11.9824 20.9889L5.61341 19.1759L4.19141 3.14294H19.8064L18.3864 19.1769L11.9864 20.9889H11.9824ZM7.72141 13.3519L7.93741 16.2189L12.0004 17.4829L15.9914 16.3429L16.8964 6.41994H7.09641L7.25441 8.36894H14.7834L14.5974 10.3929H9.65941L9.83741 12.3049H14.4374L14.1654 14.9249L12.0014 15.5249L9.80141 14.9249L9.66141 13.3549H7.72141V13.3519Z" fill="black"></path>
  </symbol>
  <symbol fill="none" xmlns="http://www.w3.org/2000/svg" viewBox="0 0 25 24" id="facebook">
    <path d="M18.9922 2H15.9922C14.6661 2 13.3943 2.52678 12.4567 3.46447C11.519 4.40215 10.9922 5.67392 10.9922 7V10H7.99219V14H10.9922V22H14.9922V14H17.9922L18.9922 10H14.9922V7C14.9922 6.73478 15.0975 6.48043 15.2851 6.29289C15.4726 6.10536 15.727 6 15.9922 6H18.9922V2Z" stroke="black" stroke-width="1.3" stroke-linecap="round" stroke-linejoin="round"></path>
  </symbol>
</svg>